<!DOCTYPE svg PUBLIC "-//W3C//DTD SVG 1.1//EN" "http://www.w3.org/Graphics/SVG/1.1/DTD/svg11.dtd">
<!-- Uploaded to: SVG Repo, www.svgrepo.com, Transformed by: SVG Repo Mixer Tools -->
<svg fill="#ffffff" height="800px" width="800px" version="1.1" id="Layer_1" xmlns="http://www.w3.org/2000/svg" xmlns:xlink="http://www.w3.org/1999/xlink" viewBox="0 0 511.998 511.998" xml:space="preserve">
<g id="SVGRepo_bgCarrier" stroke-width="0"/>
<g id="SVGRepo_tracerCarrier" stroke-linecap="round" stroke-linejoin="round"/>
<g id="SVGRepo_iconCarrier"> <g> <g> <circle cx="412.884" cy="56.354" r="39.327"/> </g> </g> <g> <g> <path d="M362.164,339.364V472.09h0c0,12.576,10.195,22.772,22.772,22.772s22.772-10.195,22.772-22.772V339.364H362.164z"/> </g> </g> <g> <g> <path d="M451.137,479.909V339.364h-33.596V472.09c0,12.576,10.195,22.772,22.772,22.772c4.901,0,9.428-1.563,13.142-4.196 C451.97,487.381,451.137,483.742,451.137,479.909z"/> </g> </g> <g> <g> <circle cx="138.691" cy="150.165" r="40.197"/> </g> </g> <g> <g> <path d="M245.395,255.653l-69.321-8.403l-44.679-29.696l26.681,8.76c-3.769-12.99-15.621-21.904-29.072-22l-28.055-0.201 c-16.96-0.122-30.764,13.632-30.717,30.582l0.283,103.442c0.022,8.114,3.277,15.883,9.043,21.592 c4.068,4.026,9.151,6.786,14.64,8.045H55.863L29.871,235.547c-1.605-8.171-9.529-13.488-17.7-11.885 c-8.169,1.606-13.491,9.531-11.885,17.7l28.383,144.396c1.39,7.07,7.589,12.168,14.794,12.168h41.067v52.221l-46.244,25.324 c-4.696,2.572-6.857,8.361-4.595,13.213c2.478,5.317,8.884,7.357,13.944,4.585l46.947-25.708l46.948,25.708 c5.075,2.779,11.483,0.719,13.953-4.602c2.251-4.849,0.089-10.626-4.6-13.194l-46.249-25.327v-52.221h43.914 c8.47,0,15.699-6.932,15.521-15.399c-0.104-4.91-2.563-9.232-6.285-11.909l14.025,3.27v98.579c0,11.85,9.215,21.944,21.059,22.366 c12.434,0.442,22.654-9.506,22.654-21.842V356.541c-0.001-10.16-7.001-18.979-16.895-21.285l-40.769-9.504l0.512-32.502 l-41.721-41.759l42.863,28.488c2.367,1.573,5.069,2.571,7.89,2.912c6.393,0.775,67.081,8.131,73.612,8.923 c9.919,1.198,19.059-5.885,20.272-15.889C262.494,265.939,255.38,256.864,245.395,255.653z"/> </g> </g> <g> <g> <path d="M498.263,300.739H229.056c-7.586,0-13.736,6.15-13.736,13.736s6.15,13.736,13.736,13.736h6.68c0,5.44,0,146.103,0,151.699 c0,8.318,6.742,15.06,15.06,15.06h0.06c8.317,0,15.06-6.742,15.06-15.06c0-5.598,0-146.264,0-151.699h196.558l-0.186,151.699 c0,8.317,6.742,15.059,15.06,15.059h0.06c8.317,0,15.059-6.742,15.059-15.059c0-15.383,0-132.638,0-151.699h5.793 c7.587,0,13.736-6.15,13.736-13.736S505.849,300.739,498.263,300.739z"/> </g> </g> <g> <g> <path d="M324.995,268.554H286.33c-5.551,0-10.051,4.499-10.051,10.05s4.5,10.05,10.051,10.05h38.665 c5.551,0,10.051-4.499,10.051-10.05S330.546,268.554,324.995,268.554z"/> </g> </g> <g> <g> <path d="M508.565,152.898c-0.124-24.638-20.269-44.682-44.907-44.682h-19.45c-2.486,6.495-20.858,54.491-23.523,61.457 l5.547-26.127c0.389-1.835,0.106-3.749-0.797-5.391l-7.617-13.852l6.771-12.316c1.008-1.835-0.321-4.085-2.416-4.085h-18.585 c-2.092,0-3.425,2.249-2.416,4.085l6.771,12.316l-7.645,13.904c-1.785,3.247-1.263,4.803,4.032,31.467 c-4.698-12.049-18.171-48.353-23.28-61.457h-19.267c-24.069,0-43.85,19.128-44.866,42.983l-9.116,55.527 c-1.218,7.416,2.057,14.852,8.347,18.962l46.008,30.05v33.848c12.284,0,88.857,0,100.903,0c0,0-0.368-22.677-0.388-136.394 c0-2.174,1.747-3.944,3.919-3.972s3.967,1.695,4.023,3.869l0.686,136.497l37.954,0.085L508.565,152.898z M362.155,210.406 l-14.901-9.732c5.443-33.631,7.167-45.507,7.573-47.585c0.366-1.87,2.092-3.156,3.988-2.971c1.896,0.185,3.339,1.78,3.339,3.685 V210.406z"/> </g> </g> </g>
</svg>